<?xml version="1.0"  encoding="UTF-8" standalone="no"?>
<svg version="1.1" xmlns="http://www.w3.org/2000/svg" xmlns:xlink="http://www.w3.org/1999/xlink" stroke-linecap="round" stroke-linejoin="round" fill="none" width="2230" height="1570" viewBox="0 0 2230 1570" data-doc-id="EKUOSLD5" data-doc-ver="2">
<g id = "scene" >
<g id = "DocumentMainGroup" >
<g id = "BackgroundGroup" >
<rect x = "0" y="0" width="2230" height="1570" fill="#E3E3E3" fill-opacity="1"/>
</g>
<g id = "EKUOSLD5" >
<g id = "EKUOSLD5" >
<rect x = "0" y="0" width="2230" height="1570" fill="#FFFCF8" fill-opacity="1"/>
<rect x = "0" y="0" width="2230" height="1570" stroke="#000000" stroke-width="0.5px" vector-effect="non-scaling-stroke"/>
<rect x = "30" y="30" width="2170" height="1510" fill="#FFFCF8" fill-opacity="1"/>
<rect x = "30" y="30" width="2170" height="1510" stroke="#000000" stroke-width="0.5px" vector-effect="non-scaling-stroke"/>
<line x1="278.75" y1="1570" x2="278.75" y2="1540" stroke="#000000" stroke-width="0.5px" vector-effect="non-scaling-stroke"/>
<text x="135.962302" y="1559.029982" font-size="9.029982px" font-family="Times New Roman" fill="#000000" xml:space="preserve">1</text>
<line x1="278.75" y1="0" x2="278.75" y2="30" stroke="#000000" stroke-width="0.5px" vector-effect="non-scaling-stroke"/>
<text x="135.962302" y="19.029982" font-size="9.029982px" font-family="Times New Roman" fill="#000000" xml:space="preserve">1</text>
<line x1="557.5" y1="1570" x2="557.5" y2="1540" stroke="#000000" stroke-width="0.5px" vector-effect="non-scaling-stroke"/>
<text x="413.984788" y="1559.029982" font-size="9.029982px" font-family="Times New Roman" fill="#000000" xml:space="preserve">2</text>
<line x1="557.5" y1="0" x2="557.5" y2="30" stroke="#000000" stroke-width="0.5px" vector-effect="non-scaling-stroke"/>
<text x="413.984788" y="19.029982" font-size="9.029982px" font-family="Times New Roman" fill="#000000" xml:space="preserve">2</text>
<line x1="836.25" y1="1570" x2="836.25" y2="1540" stroke="#000000" stroke-width="0.5px" vector-effect="non-scaling-stroke"/>
<text x="693.109568" y="1559.029982" font-size="9.029982px" font-family="Times New Roman" fill="#000000" xml:space="preserve">3</text>
<line x1="836.25" y1="0" x2="836.25" y2="30" stroke="#000000" stroke-width="0.5px" vector-effect="non-scaling-stroke"/>
<text x="693.109568" y="19.029982" font-size="9.029982px" font-family="Times New Roman" fill="#000000" xml:space="preserve">3</text>
<line x1="1115" y1="1570" x2="1115" y2="1540" stroke="#000000" stroke-width="0.5px" vector-effect="non-scaling-stroke"/>
<text x="971.42306" y="1559.029982" font-size="9.029982px" font-family="Times New Roman" fill="#000000" xml:space="preserve">4</text>
<line x1="1115" y1="0" x2="1115" y2="30" stroke="#000000" stroke-width="0.5px" vector-effect="non-scaling-stroke"/>
<text x="971.42306" y="19.029982" font-size="9.029982px" font-family="Times New Roman" fill="#000000" xml:space="preserve">4</text>
<line x1="1393.75" y1="1570" x2="1393.75" y2="1540" stroke="#000000" stroke-width="0.5px" vector-effect="non-scaling-stroke"/>
<text x="1250.455247" y="1559.029982" font-size="9.029982px" font-family="Times New Roman" fill="#000000" xml:space="preserve">5</text>
<line x1="1393.75" y1="0" x2="1393.75" y2="30" stroke="#000000" stroke-width="0.5px" vector-effect="non-scaling-stroke"/>
<text x="1250.455247" y="19.029982" font-size="9.029982px" font-family="Times New Roman" fill="#000000" xml:space="preserve">5</text>
<line x1="1672.5" y1="1570" x2="1672.5" y2="1540" stroke="#000000" stroke-width="0.5px" vector-effect="non-scaling-stroke"/>
<text x="1528.958333" y="1559.029982" font-size="9.029982px" font-family="Times New Roman" fill="#000000" xml:space="preserve">6</text>
<line x1="1672.5" y1="0" x2="1672.5" y2="30" stroke="#000000" stroke-width="0.5px" vector-effect="non-scaling-stroke"/>
<text x="1528.958333" y="19.029982" font-size="9.029982px" font-family="Times New Roman" fill="#000000" xml:space="preserve">6</text>
<line x1="1951.25" y1="1570" x2="1951.25" y2="1540" stroke="#000000" stroke-width="0.5px" vector-effect="non-scaling-stroke"/>
<text x="1807.761243" y="1559.029982" font-size="9.029982px" font-family="Times New Roman" fill="#000000" xml:space="preserve">7</text>
<line x1="1951.25" y1="0" x2="1951.25" y2="30" stroke="#000000" stroke-width="0.5px" vector-effect="non-scaling-stroke"/>
<text x="1807.761243" y="19.029982" font-size="9.029982px" font-family="Times New Roman" fill="#000000" xml:space="preserve">7</text>
<line x1="2230" y1="1570" x2="2230" y2="1540" stroke="#000000" stroke-width="0.5px" vector-effect="non-scaling-stroke"/>
<text x="2086.630291" y="1559.029982" font-size="9.029982px" font-family="Times New Roman" fill="#000000" xml:space="preserve">8</text>
<line x1="2230" y1="0" x2="2230" y2="30" stroke="#000000" stroke-width="0.5px" vector-effect="non-scaling-stroke"/>
<text x="2086.630291" y="19.029982" font-size="9.029982px" font-family="Times New Roman" fill="#000000" xml:space="preserve">8</text>
<line x1="0" y1="1177.5" x2="30" y2="1177.5" stroke="#000000" stroke-width="0.5px" vector-effect="non-scaling-stroke"/>
<text x="11.911376" y="1377.779982" font-size="9.029982px" font-family="Times New Roman" fill="#000000" xml:space="preserve">D</text>
<line x1="2230" y1="1177.5" x2="2200" y2="1177.5" stroke="#000000" stroke-width="0.5px" vector-effect="non-scaling-stroke"/>
<text x="2211.911376" y="1377.779982" font-size="9.029982px" font-family="Times New Roman" fill="#000000" xml:space="preserve">D</text>
<line x1="0" y1="785" x2="30" y2="785" stroke="#000000" stroke-width="0.5px" vector-effect="non-scaling-stroke"/>
<text x="12.145062" y="985.279982" font-size="9.029982px" font-family="Times New Roman" fill="#000000" xml:space="preserve">C</text>
<line x1="2230" y1="785" x2="2200" y2="785" stroke="#000000" stroke-width="0.5px" vector-effect="non-scaling-stroke"/>
<text x="2212.145062" y="985.279982" font-size="9.029982px" font-family="Times New Roman" fill="#000000" xml:space="preserve">C</text>
<line x1="0" y1="392.5" x2="30" y2="392.5" stroke="#000000" stroke-width="0.5px" vector-effect="non-scaling-stroke"/>
<text x="12.23545" y="592.779982" font-size="9.029982px" font-family="Times New Roman" fill="#000000" xml:space="preserve">B</text>
<line x1="2230" y1="392.5" x2="2200" y2="392.5" stroke="#000000" stroke-width="0.5px" vector-effect="non-scaling-stroke"/>
<text x="2212.23545" y="592.779982" font-size="9.029982px" font-family="Times New Roman" fill="#000000" xml:space="preserve">B</text>
<line x1="0" y1="0" x2="30" y2="0" stroke="#000000" stroke-width="0.5px" vector-effect="non-scaling-stroke"/>
<text x="11.790123" y="200.279982" font-size="9.029982px" font-family="Times New Roman" fill="#000000" xml:space="preserve">A</text>
<line x1="2230" y1="0" x2="2200" y2="0" stroke="#000000" stroke-width="0.5px" vector-effect="non-scaling-stroke"/>
<text x="2211.790123" y="200.279982" font-size="9.029982px" font-family="Times New Roman" fill="#000000" xml:space="preserve">A</text>
</g>
<g id = "DocumentItemsGroup" >
<g id = "CZFKFZRB" >
<polygon points="675,535 670,530 675,525 735,525 740,530 735,535" fill="#D9EAD3" fill-opacity="1"/>
<polygon points="675,535 670,530 675,525 735,525 740,530 735,535" fill="none" stroke="#000000" stroke-width="1px"/>
<text x="682.082605" y="533" font-size="8.951049px" font-family="Arial" fill="#000000" xml:space="preserve">CLK_OUT0</text>
</g>
<g id = "EAEDKVBY" >
<polygon points="1015,535 1010,530 1015,525 1075,525 1080,530 1075,535" fill="#D9EAD3" fill-opacity="1"/>
<polygon points="1015,535 1010,530 1015,525 1075,525 1080,530 1075,535" fill="none" stroke="#000000" stroke-width="1px"/>
<text x="1026.962413" y="533" font-size="8.951049px" font-family="Arial" fill="#000000" xml:space="preserve">OSC_EN</text>
</g>
<g id = "GWBNSJDV" >
<polygon points="675,335 670,330 675,325 735,325 740,330 735,335" fill="#D9EAD3" fill-opacity="1"/>
<polygon points="675,335 670,330 675,325 735,325 740,330 735,335" fill="none" stroke="#000000" stroke-width="1px"/>
<text x="682.104458" y="333" font-size="8.951049px" font-family="Arial" fill="#000000" xml:space="preserve">CLK_OUT2</text>
</g>
<g id = "JTKMZHMB" >
<polygon points="1015,435 1010,430 1015,425 1075,425 1080,430 1075,435" fill="#D9EAD3" fill-opacity="1"/>
<polygon points="1015,435 1010,430 1015,425 1075,425 1080,430 1075,435" fill="none" stroke="#000000" stroke-width="1px"/>
<text x="1018.760927" y="433" font-size="8.951049px" font-family="Arial" fill="#000000" xml:space="preserve">WEIGHT_EN</text>
</g>
<g id = "KPHKJJJV" >
<polygon points="675,235 670,230 675,225 735,225 740,230 735,235" fill="#D9EAD3" fill-opacity="1"/>
<polygon points="675,235 670,230 675,225 735,225 740,230 735,235" fill="none" stroke="#000000" stroke-width="1px"/>
<text x="682.071678" y="233" font-size="8.951049px" font-family="Arial" fill="#000000" xml:space="preserve">CLK_OUT3</text>
</g>
<g id = "RXYDSWYF" >
<polygon points="1535,505 1530,500 1535,495 1595,495 1600,500 1595,505" fill="#D9EAD3" fill-opacity="1"/>
<polygon points="1535,505 1530,500 1535,495 1595,495 1600,500 1595,505" fill="none" stroke="#000000" stroke-width="1px"/>
<text x="1551.555944" y="503" font-size="8.951049px" font-family="Arial" fill="#000000" xml:space="preserve">GPIO2</text>
</g>
<g id = "SSWEYOXD" >
<polygon points="1535,515 1530,510 1535,505 1595,505 1600,510 1595,515" fill="#D9EAD3" fill-opacity="1"/>
<polygon points="1535,515 1530,510 1535,505 1595,505 1600,510 1595,515" fill="none" stroke="#000000" stroke-width="1px"/>
<text x="1551.523164" y="513" font-size="8.951049px" font-family="Arial" fill="#000000" xml:space="preserve">GPIO3</text>
</g>
<g id = "TFMZYCWD" >
<polygon points="1535,485 1530,480 1535,475 1595,475 1600,480 1595,485" fill="#D9EAD3" fill-opacity="1"/>
<polygon points="1535,485 1530,480 1535,475 1595,475 1600,480 1595,485" fill="none" stroke="#000000" stroke-width="1px"/>
<text x="1551.534091" y="483" font-size="8.951049px" font-family="Arial" fill="#000000" xml:space="preserve">GPIO0</text>
</g>
<g id = "TKIFZJDJ" >
<polygon points="1015,335 1010,330 1015,325 1075,325 1080,330 1075,335" fill="#D9EAD3" fill-opacity="1"/>
<polygon points="1015,335 1010,330 1015,325 1075,325 1080,330 1075,335" fill="none" stroke="#000000" stroke-width="1px"/>
<text x="1013.942308" y="333" font-size="8.951049px" font-family="Arial" fill="#000000" xml:space="preserve">SAMPLE_TRIG</text>
</g>
<g id = "WMDUZUKC" >
<polygon points="675,435 670,430 675,425 735,425 740,430 735,435" fill="#D9EAD3" fill-opacity="1"/>
<polygon points="675,435 670,430 675,425 735,425 740,430 735,435" fill="none" stroke="#000000" stroke-width="1px"/>
<text x="682.690122" y="433" font-size="8.951049px" font-family="Arial" fill="#000000" xml:space="preserve">CLK_OUT1</text>
</g>
<g id = "YDEFGZRB" >
<polygon points="1535,495 1530,490 1535,485 1595,485 1600,490 1595,495" fill="#D9EAD3" fill-opacity="1"/>
<polygon points="1535,495 1530,490 1535,485 1595,485 1600,490 1595,495" fill="none" stroke="#000000" stroke-width="1px"/>
<text x="1552.141608" y="493" font-size="8.951049px" font-family="Arial" fill="#000000" xml:space="preserve">GPIO1</text>
</g>
<g id = "HLSJAICR" >
<line x1="610" y1="1260" x2="630" y2="1260" stroke="#800000" stroke-width="1px"/>
<line x1="613" y1="1263" x2="627" y2="1263" stroke="#800000" stroke-width="1px"/>
<line x1="616" y1="1266" x2="624" y2="1266" stroke="#800000" stroke-width="1px"/>
<line x1="619" y1="1269" x2="621" y2="1269" stroke="#800000" stroke-width="1px"/>
<line x1="620" y1="1250" x2="620" y2="1260" stroke="#800000" stroke-width="1px"/>
</g>
<g id = "IEPNAAUQ" >
<line x1="810" y1="1260" x2="830" y2="1260" stroke="#800000" stroke-width="1px"/>
<line x1="813" y1="1263" x2="827" y2="1263" stroke="#800000" stroke-width="1px"/>
<line x1="816" y1="1266" x2="824" y2="1266" stroke="#800000" stroke-width="1px"/>
<line x1="819" y1="1269" x2="821" y2="1269" stroke="#800000" stroke-width="1px"/>
<line x1="820" y1="1250" x2="820" y2="1260" stroke="#800000" stroke-width="1px"/>
</g>
<g id = "TZPEOULJ" >
<line x1="1010" y1="1260" x2="1030" y2="1260" stroke="#800000" stroke-width="1px"/>
<line x1="1013" y1="1263" x2="1027" y2="1263" stroke="#800000" stroke-width="1px"/>
<line x1="1016" y1="1266" x2="1024" y2="1266" stroke="#800000" stroke-width="1px"/>
<line x1="1019" y1="1269" x2="1021" y2="1269" stroke="#800000" stroke-width="1px"/>
<line x1="1020" y1="1250" x2="1020" y2="1260" stroke="#800000" stroke-width="1px"/>
</g>
<g id = "BACPSGYC" >
<line x1="620" y1="1230" x2="620" y2="1250" stroke="#000080" stroke-width="1px"/>
</g>
<g id = "BCFPQUOU" >
<line x1="820" y1="1230" x2="820" y2="1250" stroke="#000080" stroke-width="1px"/>
</g>
<g id = "DASRFGAO" >
<line x1="1150" y1="530" x2="1080" y2="530" stroke="#000080" stroke-width="1px"/>
</g>
<g id = "ECEZUHBC" >
<line x1="1720" y1="480" x2="1600" y2="480" stroke="#000080" stroke-width="1px"/>
</g>
<g id = "FOERRPQO" >
<line x1="1020" y1="1230" x2="1020" y2="1250" stroke="#000080" stroke-width="1px"/>
</g>
<g id = "GJZVGZRD" >
<line x1="1720" y1="500" x2="1600" y2="500" stroke="#000080" stroke-width="1px"/>
</g>
<g id = "JHLZPJPY" >
<line x1="1320" y1="330" x2="1170" y2="330" stroke="#000080" stroke-width="1px"/>
</g>
<g id = "JJFFXVXM" >
<line x1="1720" y1="510" x2="1600" y2="510" stroke="#000080" stroke-width="1px"/>
</g>
<g id = "JXNEKOSY" >
<line x1="820" y1="430" x2="740" y2="430" stroke="#000080" stroke-width="1px"/>
</g>
<g id = "LDYNYFSF" >
<line x1="1320" y1="530" x2="1170" y2="530" stroke="#000080" stroke-width="1px"/>
</g>
<g id = "NXCMNPCQ" >
<line x1="1320" y1="430" x2="1170" y2="430" stroke="#000080" stroke-width="1px"/>
</g>
<g id = "OGHLBQME" >
<line x1="820" y1="530" x2="740" y2="530" stroke="#000080" stroke-width="1px"/>
</g>
<g id = "PPIXTSAI" >
<line x1="1150" y1="330" x2="1080" y2="330" stroke="#000080" stroke-width="1px"/>
</g>
<g id = "RBLSFQIY" >
<line x1="1150" y1="430" x2="1080" y2="430" stroke="#000080" stroke-width="1px"/>
</g>
<g id = "WATKJEVS" >
<line x1="820" y1="330" x2="740" y2="330" stroke="#000080" stroke-width="1px"/>
</g>
<g id = "XLFKWSSF" >
<line x1="1720" y1="490" x2="1600" y2="490" stroke="#000080" stroke-width="1px"/>
</g>
<g id = "XOETQJTQ" >
<line x1="820" y1="230" x2="740" y2="230" stroke="#000080" stroke-width="1px"/>
</g>
<g id = "1PQLJEN1" >
<g id = "OFI78VKD" >
<line x1="860" y1="230" x2="840" y2="230" stroke="#000000" stroke-width="1px"/>
</g>
<g id = "42CWCK6M" >
<line x1="860" y1="230" x2="855" y2="226.667" stroke="#000000" stroke-width="1px"/>
</g>
<g id = "3MX56D9T" >
<line x1="860" y1="230" x2="855" y2="233.333" stroke="#000000" stroke-width="1px"/>
</g>
<g id = "MQFVB4NX" >
<rect x = "840" y="220" width="30" height="20" fill="#FFFFB0" fill-opacity="0.49019607843137253"/>
<rect x = "840" y="220" width="30" height="20" stroke="#000000" stroke-width="1px"/>
</g>
<g id = "W2EHXW6R" >
<line x1="840" y1="230" x2="820" y2="230" stroke="#000000" stroke-width="1px"/>
<text x="828.5873" y="229" font-size="9.029982px" font-family="Times New Roman" fill="#000000" xml:space="preserve">1</text>
</g>
<g id = "SO4RRDNO" >
<text x="820" y="213" font-size="8.951049px" font-family="Arial" fill="#000080" xml:space="preserve">SMA</text>
</g>
<g id = "WP9LZWXZ" >
<text x="820" y="219" font-size="9.029982px" font-family="Times New Roman" fill="#000000" xml:space="preserve">J53</text>
</g>
</g>
<g id = "2AUK1ELW" >
<g id = "AXAO2BEH" >
<line x1="860" y1="330" x2="840" y2="330" stroke="#000000" stroke-width="1px"/>
</g>
<g id = "VFQ3HVVU" >
<line x1="860" y1="330" x2="855" y2="326.667" stroke="#000000" stroke-width="1px"/>
</g>
<g id = "OLRBX0BE" >
<line x1="860" y1="330" x2="855" y2="333.333" stroke="#000000" stroke-width="1px"/>
</g>
<g id = "JZRCQN46" >
<rect x = "840" y="320" width="30" height="20" fill="#FFFFB0" fill-opacity="0.49019607843137253"/>
<rect x = "840" y="320" width="30" height="20" stroke="#000000" stroke-width="1px"/>
</g>
<g id = "1QQ6ELKH" >
<line x1="840" y1="330" x2="820" y2="330" stroke="#000000" stroke-width="1px"/>
<text x="828.5873" y="329" font-size="9.029982px" font-family="Times New Roman" fill="#000000" xml:space="preserve">1</text>
</g>
<g id = "0X2YFWLF" >
<text x="820" y="313" font-size="8.951049px" font-family="Arial" fill="#000080" xml:space="preserve">SMA</text>
</g>
<g id = "SRQ5QCI1" >
<text x="820" y="319" font-size="9.029982px" font-family="Times New Roman" fill="#000000" xml:space="preserve">J52</text>
</g>
</g>
<g id = "6TEJTEX1" >
<g id = "ZRVI7TCT" >
<line x1="1360" y1="530" x2="1340" y2="530" stroke="#000000" stroke-width="1px"/>
</g>
<g id = "PY2DSYE1" >
<line x1="1360" y1="530" x2="1355" y2="526.667" stroke="#000000" stroke-width="1px"/>
</g>
<g id = "O9WPN06Q" >
<line x1="1360" y1="530" x2="1355" y2="533.333" stroke="#000000" stroke-width="1px"/>
</g>
<g id = "3P5MTO2F" >
<rect x = "1340" y="520" width="30" height="20" fill="#FFFFB0" fill-opacity="0.49019607843137253"/>
<rect x = "1340" y="520" width="30" height="20" stroke="#000000" stroke-width="1px"/>
</g>
<g id = "TIAWV112" >
<line x1="1340" y1="530" x2="1320" y2="530" stroke="#000000" stroke-width="1px"/>
<text x="1328.5873" y="529" font-size="9.029982px" font-family="Times New Roman" fill="#000000" xml:space="preserve">1</text>
</g>
<g id = "KNMIBCBD" >
<text x="1320" y="513" font-size="8.951049px" font-family="Arial" fill="#000080" xml:space="preserve">SMA</text>
</g>
<g id = "QFGBSJL1" >
<text x="1320" y="519" font-size="9.029982px" font-family="Times New Roman" fill="#000000" xml:space="preserve">J54</text>
</g>
</g>
<g id = "84T29QNU" >
<g id = "T6TWSXO8" >
<line x1="1060" y1="1230" x2="1040" y2="1230" stroke="#000000" stroke-width="1px"/>
</g>
<g id = "4Y67Y2QZ" >
<line x1="1060" y1="1230" x2="1055" y2="1226.667" stroke="#000000" stroke-width="1px"/>
</g>
<g id = "F6VZHZOU" >
<line x1="1060" y1="1230" x2="1055" y2="1233.333" stroke="#000000" stroke-width="1px"/>
</g>
<g id = "NB16MFPG" >
<rect x = "1040" y="1220" width="30" height="20" fill="#FFFFB0" fill-opacity="0.49019607843137253"/>
<rect x = "1040" y="1220" width="30" height="20" stroke="#000000" stroke-width="1px"/>
</g>
<g id = "2DEGBRB3" >
<line x1="1040" y1="1230" x2="1020" y2="1230" stroke="#000000" stroke-width="1px"/>
<text x="1028.5873" y="1229" font-size="9.029982px" font-family="Times New Roman" fill="#000000" xml:space="preserve">1</text>
</g>
<g id = "WWQK8RVF" >
<text x="1020" y="1213" font-size="8.951049px" font-family="Arial" fill="#000080" xml:space="preserve">GND-CLIP</text>
</g>
<g id = "9IPB2GGW" >
<text x="1020" y="1219" font-size="9.029982px" font-family="Times New Roman" fill="#000000" xml:space="preserve">TP52</text>
</g>
</g>
<g id = "BPL5W7ME" >
<g id = "595OQ9EY" >
<line x1="1360" y1="430" x2="1340" y2="430" stroke="#000000" stroke-width="1px"/>
</g>
<g id = "BBNG4WFH" >
<line x1="1360" y1="430" x2="1355" y2="426.667" stroke="#000000" stroke-width="1px"/>
</g>
<g id = "STGSH0J4" >
<line x1="1360" y1="430" x2="1355" y2="433.333" stroke="#000000" stroke-width="1px"/>
</g>
<g id = "C27JIQCS" >
<rect x = "1340" y="420" width="30" height="20" fill="#FFFFB0" fill-opacity="0.49019607843137253"/>
<rect x = "1340" y="420" width="30" height="20" stroke="#000000" stroke-width="1px"/>
</g>
<g id = "FJA4I22C" >
<line x1="1340" y1="430" x2="1320" y2="430" stroke="#000000" stroke-width="1px"/>
<text x="1328.5873" y="429" font-size="9.029982px" font-family="Times New Roman" fill="#000000" xml:space="preserve">1</text>
</g>
<g id = "P2XUOJ8B" >
<text x="1320" y="413" font-size="8.951049px" font-family="Arial" fill="#000080" xml:space="preserve">SMA</text>
</g>
<g id = "1H7DY6NM" >
<text x="1320" y="419" font-size="9.029982px" font-family="Times New Roman" fill="#000000" xml:space="preserve">J55</text>
</g>
</g>
<g id = "C0VNEFS3" >
<g id = "JLLPX2Q6" >
<line x1="860" y1="530" x2="840" y2="530" stroke="#000000" stroke-width="1px"/>
</g>
<g id = "M4VN2R2Y" >
<line x1="860" y1="530" x2="855" y2="526.667" stroke="#000000" stroke-width="1px"/>
</g>
<g id = "I2JWDVH1" >
<line x1="860" y1="530" x2="855" y2="533.333" stroke="#000000" stroke-width="1px"/>
</g>
<g id = "BH0V4UAJ" >
<rect x = "840" y="520" width="30" height="20" fill="#FFFFB0" fill-opacity="0.49019607843137253"/>
<rect x = "840" y="520" width="30" height="20" stroke="#000000" stroke-width="1px"/>
</g>
<g id = "75EU80IC" >
<line x1="840" y1="530" x2="820" y2="530" stroke="#000000" stroke-width="1px"/>
<text x="828.5873" y="529" font-size="9.029982px" font-family="Times New Roman" fill="#000000" xml:space="preserve">1</text>
</g>
<g id = "IFNPCBG2" >
<text x="820" y="513" font-size="8.951049px" font-family="Arial" fill="#000080" xml:space="preserve">SMA</text>
</g>
<g id = "RLNZZBZE" >
<text x="820" y="519" font-size="9.029982px" font-family="Times New Roman" fill="#000000" xml:space="preserve">J50</text>
</g>
</g>
<g id = "DKQ1CL2F" >
<g id = "35VLGSE5" >
<line x1="1760" y1="480" x2="1740" y2="480" stroke="#000000" stroke-width="1px"/>
</g>
<g id = "JHNXXLDG" >
<line x1="1760" y1="490" x2="1740" y2="490" stroke="#000000" stroke-width="1px"/>
</g>
<g id = "QIFFJI5C" >
<line x1="1760" y1="500" x2="1740" y2="500" stroke="#000000" stroke-width="1px"/>
</g>
<g id = "2MJ4DKGA" >
<line x1="1760" y1="510" x2="1740" y2="510" stroke="#000000" stroke-width="1px"/>
</g>
<g id = "HO0O7UP7" >
<line x1="1760" y1="480" x2="1755" y2="476.667" stroke="#000000" stroke-width="1px"/>
</g>
<g id = "VC2M5PLG" >
<line x1="1760" y1="490" x2="1755" y2="486.667" stroke="#000000" stroke-width="1px"/>
</g>
<g id = "2P6T946N" >
<line x1="1760" y1="500" x2="1755" y2="496.667" stroke="#000000" stroke-width="1px"/>
</g>
<g id = "MHMVHAXA" >
<line x1="1760" y1="510" x2="1755" y2="506.667" stroke="#000000" stroke-width="1px"/>
</g>
<g id = "8D1QNCX1" >
<line x1="1760" y1="480" x2="1755" y2="483.333" stroke="#000000" stroke-width="1px"/>
</g>
<g id = "BHPARI56" >
<line x1="1760" y1="490" x2="1755" y2="493.333" stroke="#000000" stroke-width="1px"/>
</g>
<g id = "1VL91D64" >
<line x1="1760" y1="500" x2="1755" y2="503.333" stroke="#000000" stroke-width="1px"/>
</g>
<g id = "0SC0DS0V" >
<line x1="1760" y1="510" x2="1755" y2="513.333" stroke="#000000" stroke-width="1px"/>
</g>
<g id = "SNJFLGK8" >
<rect x = "1740" y="470" width="30" height="50" fill="#FFFFB0" fill-opacity="0.49019607843137253"/>
<rect x = "1740" y="470" width="30" height="50" stroke="#000000" stroke-width="1px"/>
</g>
<g id = "TSJAH3BY" >
<line x1="1740" y1="480" x2="1720" y2="480" stroke="#000000" stroke-width="1px"/>
<text x="1728.5873" y="479" font-size="9.029982px" font-family="Times New Roman" fill="#000000" xml:space="preserve">1</text>
</g>
<g id = "AK2NKAJ2" >
<line x1="1740" y1="490" x2="1720" y2="490" stroke="#000000" stroke-width="1px"/>
<text x="1727.8598" y="489" font-size="9.029982px" font-family="Times New Roman" fill="#000000" xml:space="preserve">2</text>
</g>
<g id = "BZG1ND27" >
<line x1="1740" y1="500" x2="1720" y2="500" stroke="#000000" stroke-width="1px"/>
<text x="1728.2346" y="499" font-size="9.029982px" font-family="Times New Roman" fill="#000000" xml:space="preserve">3</text>
</g>
<g id = "9G1MHNRZ" >
<line x1="1740" y1="510" x2="1720" y2="510" stroke="#000000" stroke-width="1px"/>
<text x="1727.7981" y="509" font-size="9.029982px" font-family="Times New Roman" fill="#000000" xml:space="preserve">4</text>
</g>
<g id = "10RXZ415" >
<text x="1720" y="463" font-size="8.951049px" font-family="Arial" fill="#000080" xml:space="preserve">1x4 100mil</text>
</g>
<g id = "1S2OYZ0L" >
<text x="1720" y="469" font-size="9.029982px" font-family="Times New Roman" fill="#000000" xml:space="preserve">J57</text>
</g>
</g>
<g id = "E92WQ1CY" >
<g id = "QSTN6HS6" >
<line x1="1360" y1="330" x2="1340" y2="330" stroke="#000000" stroke-width="1px"/>
</g>
<g id = "OG0VKYVX" >
<line x1="1360" y1="330" x2="1355" y2="326.667" stroke="#000000" stroke-width="1px"/>
</g>
<g id = "UG0CM7NL" >
<line x1="1360" y1="330" x2="1355" y2="333.333" stroke="#000000" stroke-width="1px"/>
</g>
<g id = "3ORDXQQG" >
<rect x = "1340" y="320" width="30" height="20" fill="#FFFFB0" fill-opacity="0.49019607843137253"/>
<rect x = "1340" y="320" width="30" height="20" stroke="#000000" stroke-width="1px"/>
</g>
<g id = "TCTEYB6B" >
<line x1="1340" y1="330" x2="1320" y2="330" stroke="#000000" stroke-width="1px"/>
<text x="1328.5873" y="329" font-size="9.029982px" font-family="Times New Roman" fill="#000000" xml:space="preserve">1</text>
</g>
<g id = "4JGY28ZZ" >
<text x="1320" y="313" font-size="8.951049px" font-family="Arial" fill="#000080" xml:space="preserve">SMA</text>
</g>
<g id = "KR8X23B4" >
<text x="1320" y="319" font-size="9.029982px" font-family="Times New Roman" fill="#000000" xml:space="preserve">J56</text>
</g>
</g>
<g id = "EGLOS9CS" >
<g id = "KP0M3248" >
<line x1="860" y1="430" x2="840" y2="430" stroke="#000000" stroke-width="1px"/>
</g>
<g id = "RC16R2C4" >
<line x1="860" y1="430" x2="855" y2="426.667" stroke="#000000" stroke-width="1px"/>
</g>
<g id = "4KMAO7E2" >
<line x1="860" y1="430" x2="855" y2="433.333" stroke="#000000" stroke-width="1px"/>
</g>
<g id = "UHPUYVCN" >
<rect x = "840" y="420" width="30" height="20" fill="#FFFFB0" fill-opacity="0.49019607843137253"/>
<rect x = "840" y="420" width="30" height="20" stroke="#000000" stroke-width="1px"/>
</g>
<g id = "K9BQ6XU6" >
<line x1="840" y1="430" x2="820" y2="430" stroke="#000000" stroke-width="1px"/>
<text x="828.5873" y="429" font-size="9.029982px" font-family="Times New Roman" fill="#000000" xml:space="preserve">1</text>
</g>
<g id = "1MKFHKY9" >
<text x="820" y="413" font-size="8.951049px" font-family="Arial" fill="#000080" xml:space="preserve">SMA</text>
</g>
<g id = "RUGW1X5O" >
<text x="820" y="419" font-size="9.029982px" font-family="Times New Roman" fill="#000000" xml:space="preserve">J51</text>
</g>
</g>
<g id = "L83RKU2V" >
<g id = "KLKNM8WU" >
<line x1="1167" y1="330" x2="1164.6" y2="334.5" stroke="#000000" stroke-width="1px"/>
<line x1="1164.6" y1="334.5" x2="1162.3" y2="325.5" stroke="#000000" stroke-width="1px"/>
<line x1="1162.3" y1="325.5" x2="1160" y2="334.5" stroke="#000000" stroke-width="1px"/>
<line x1="1160" y1="334.5" x2="1157.7" y2="325.5" stroke="#000000" stroke-width="1px"/>
<line x1="1157.7" y1="325.5" x2="1155.4" y2="334.5" stroke="#000000" stroke-width="1px"/>
<line x1="1155.4" y1="334.5" x2="1153" y2="330" stroke="#000000" stroke-width="1px"/>
</g>
<g id = "NCF1SVAE" >
<line x1="1170" y1="330" x2="1167" y2="330" stroke="#000000" stroke-width="1px"/>
</g>
<g id = "UDDVZVL7" >
<line x1="1150" y1="330" x2="1153" y2="330" stroke="#000000" stroke-width="1px"/>
</g>
<g id = "JQ7YNG5G" >
<line x1="1167" y1="330" x2="1170" y2="330" stroke="#000000" stroke-width="1px"/>
<text x="1175" y="329" font-size="4.413793px" font-family="Courier New" fill="#000000" xml:space="preserve">1</text>
</g>
<g id = "MUVRPAIE" >
<line x1="1153" y1="330" x2="1150" y2="330" stroke="#000000" stroke-width="1px"/>
<text x="1142.8815" y="329" font-size="4.413793px" font-family="Courier New" fill="#000000" xml:space="preserve">2</text>
</g>
<g id = "EG1VZFEE" >
<text x="1160" y="319" font-size="9.029982px" font-family="Times New Roman" fill="#000000" xml:space="preserve">R52</text>
</g>
<g id = "JT1AUWLX" >
<text x="1175" y="328" font-size="8.951049px" font-family="Arial" fill="#000000" xml:space="preserve">0</text>
</g>
</g>
<g id = "RF9YJ82A" >
<g id = "C7ZJ5TAE" >
<line x1="1167" y1="430" x2="1164.6" y2="434.5" stroke="#000000" stroke-width="1px"/>
<line x1="1164.6" y1="434.5" x2="1162.3" y2="425.5" stroke="#000000" stroke-width="1px"/>
<line x1="1162.3" y1="425.5" x2="1160" y2="434.5" stroke="#000000" stroke-width="1px"/>
<line x1="1160" y1="434.5" x2="1157.7" y2="425.5" stroke="#000000" stroke-width="1px"/>
<line x1="1157.7" y1="425.5" x2="1155.4" y2="434.5" stroke="#000000" stroke-width="1px"/>
<line x1="1155.4" y1="434.5" x2="1153" y2="430" stroke="#000000" stroke-width="1px"/>
</g>
<g id = "C8US5AZB" >
<line x1="1170" y1="430" x2="1167" y2="430" stroke="#000000" stroke-width="1px"/>
</g>
<g id = "5DW1ELQJ" >
<line x1="1150" y1="430" x2="1153" y2="430" stroke="#000000" stroke-width="1px"/>
</g>
<g id = "GW3F1NJF" >
<line x1="1167" y1="430" x2="1170" y2="430" stroke="#000000" stroke-width="1px"/>
<text x="1175" y="429" font-size="4.413793px" font-family="Courier New" fill="#000000" xml:space="preserve">1</text>
</g>
<g id = "V4GK3SR1" >
<line x1="1153" y1="430" x2="1150" y2="430" stroke="#000000" stroke-width="1px"/>
<text x="1142.8815" y="429" font-size="4.413793px" font-family="Courier New" fill="#000000" xml:space="preserve">2</text>
</g>
<g id = "5BYE010I" >
<text x="1175" y="428" font-size="8.951049px" font-family="Arial" fill="#000000" xml:space="preserve">0</text>
</g>
<g id = "QCC2FLGD" >
<text x="1160" y="419" font-size="9.029982px" font-family="Times New Roman" fill="#000000" xml:space="preserve">R51</text>
</g>
</g>
<g id = "RLQUMYAE" >
<g id = "RV3JQUX2" >
<line x1="860" y1="1230" x2="840" y2="1230" stroke="#000000" stroke-width="1px"/>
</g>
<g id = "XZ3044XE" >
<line x1="860" y1="1230" x2="855" y2="1226.667" stroke="#000000" stroke-width="1px"/>
</g>
<g id = "I26IUBE9" >
<line x1="860" y1="1230" x2="855" y2="1233.333" stroke="#000000" stroke-width="1px"/>
</g>
<g id = "7IR08PLV" >
<rect x = "840" y="1220" width="30" height="20" fill="#FFFFB0" fill-opacity="0.49019607843137253"/>
<rect x = "840" y="1220" width="30" height="20" stroke="#000000" stroke-width="1px"/>
</g>
<g id = "IPS1GQ48" >
<line x1="840" y1="1230" x2="820" y2="1230" stroke="#000000" stroke-width="1px"/>
<text x="828.5873" y="1229" font-size="9.029982px" font-family="Times New Roman" fill="#000000" xml:space="preserve">1</text>
</g>
<g id = "4R9KNM2R" >
<text x="820" y="1213" font-size="8.951049px" font-family="Arial" fill="#000080" xml:space="preserve">GND-CLIP</text>
</g>
<g id = "PN5SH5KG" >
<text x="820" y="1219" font-size="9.029982px" font-family="Times New Roman" fill="#000000" xml:space="preserve">TP51</text>
</g>
</g>
<g id = "UGE73UYX" >
<g id = "3QMMOH84" >
<line x1="660" y1="1230" x2="640" y2="1230" stroke="#000000" stroke-width="1px"/>
</g>
<g id = "J4CLQ596" >
<line x1="660" y1="1230" x2="655" y2="1226.667" stroke="#000000" stroke-width="1px"/>
</g>
<g id = "575N0PSB" >
<line x1="660" y1="1230" x2="655" y2="1233.333" stroke="#000000" stroke-width="1px"/>
</g>
<g id = "KQL9THK6" >
<rect x = "640" y="1220" width="30" height="20" fill="#FFFFB0" fill-opacity="0.49019607843137253"/>
<rect x = "640" y="1220" width="30" height="20" stroke="#000000" stroke-width="1px"/>
</g>
<g id = "VX3OYWCD" >
<line x1="640" y1="1230" x2="620" y2="1230" stroke="#000000" stroke-width="1px"/>
<text x="628.5873" y="1229" font-size="9.029982px" font-family="Times New Roman" fill="#000000" xml:space="preserve">1</text>
</g>
<g id = "DX5L56WY" >
<text x="620" y="1213" font-size="8.951049px" font-family="Arial" fill="#000080" xml:space="preserve">GND-CLIP</text>
</g>
<g id = "R92F21H9" >
<text x="620" y="1219" font-size="9.029982px" font-family="Times New Roman" fill="#000000" xml:space="preserve">TP50</text>
</g>
</g>
<g id = "Y18JLV91" >
<g id = "ENI7CRNO" >
<line x1="1167" y1="530" x2="1164.6" y2="534.5" stroke="#000000" stroke-width="1px"/>
<line x1="1164.6" y1="534.5" x2="1162.3" y2="525.5" stroke="#000000" stroke-width="1px"/>
<line x1="1162.3" y1="525.5" x2="1160" y2="534.5" stroke="#000000" stroke-width="1px"/>
<line x1="1160" y1="534.5" x2="1157.7" y2="525.5" stroke="#000000" stroke-width="1px"/>
<line x1="1157.7" y1="525.5" x2="1155.4" y2="534.5" stroke="#000000" stroke-width="1px"/>
<line x1="1155.4" y1="534.5" x2="1153" y2="530" stroke="#000000" stroke-width="1px"/>
</g>
<g id = "DBB830HS" >
<line x1="1170" y1="530" x2="1167" y2="530" stroke="#000000" stroke-width="1px"/>
</g>
<g id = "I1SZ94NE" >
<line x1="1150" y1="530" x2="1153" y2="530" stroke="#000000" stroke-width="1px"/>
</g>
<g id = "84HKZFJA" >
<line x1="1167" y1="530" x2="1170" y2="530" stroke="#000000" stroke-width="1px"/>
<text x="1175" y="529" font-size="4.413793px" font-family="Courier New" fill="#000000" xml:space="preserve">1</text>
</g>
<g id = "CNPLID0Q" >
<line x1="1153" y1="530" x2="1150" y2="530" stroke="#000000" stroke-width="1px"/>
<text x="1142.8815" y="529" font-size="4.413793px" font-family="Courier New" fill="#000000" xml:space="preserve">2</text>
</g>
<g id = "SNOUZXBR" >
<text x="1175" y="528" font-size="8.951049px" font-family="Arial" fill="#000000" xml:space="preserve">0</text>
</g>
<g id = "W2JJ7X8M" >
<text x="1160" y="519" font-size="9.029982px" font-family="Times New Roman" fill="#000000" xml:space="preserve">R50</text>
</g>
</g>
</g>
</g>
</g>
</g>
</svg>