<?xml version="1.0"  encoding="UTF-8" standalone="no"?>
<svg version="1.1" xmlns="http://www.w3.org/2000/svg" xmlns:xlink="http://www.w3.org/1999/xlink" stroke-linecap="round" stroke-linejoin="round" fill="none" width="2230" height="1570" viewBox="0 0 2230 1570" data-doc-id="67120DKR" data-doc-ver="2">
<g id = "scene" >
<g id = "DocumentMainGroup" >
<g id = "BackgroundGroup" >
<rect x = "0" y="0" width="2230" height="1570" fill="#E3E3E3" fill-opacity="1"/>
</g>
<g id = "67120DKR" >
<g id = "67120DKR" >
<rect x = "0" y="0" width="2230" height="1570" fill="#FFFCF8" fill-opacity="1"/>
<rect x = "0" y="0" width="2230" height="1570" stroke="#000000" stroke-width="0.5px" vector-effect="non-scaling-stroke"/>
<rect x = "30" y="30" width="2170" height="1510" fill="#FFFCF8" fill-opacity="1"/>
<rect x = "30" y="30" width="2170" height="1510" stroke="#000000" stroke-width="0.5px" vector-effect="non-scaling-stroke"/>
<line x1="278.75" y1="1570" x2="278.75" y2="1540" stroke="#000000" stroke-width="0.5px" vector-effect="non-scaling-stroke"/>
<text x="135.962302" y="1559.029982" font-size="9.029982px" font-family="Times New Roman" fill="#000000" xml:space="preserve">1</text>
<line x1="278.75" y1="0" x2="278.75" y2="30" stroke="#000000" stroke-width="0.5px" vector-effect="non-scaling-stroke"/>
<text x="135.962302" y="19.029982" font-size="9.029982px" font-family="Times New Roman" fill="#000000" xml:space="preserve">1</text>
<line x1="557.5" y1="1570" x2="557.5" y2="1540" stroke="#000000" stroke-width="0.5px" vector-effect="non-scaling-stroke"/>
<text x="413.984788" y="1559.029982" font-size="9.029982px" font-family="Times New Roman" fill="#000000" xml:space="preserve">2</text>
<line x1="557.5" y1="0" x2="557.5" y2="30" stroke="#000000" stroke-width="0.5px" vector-effect="non-scaling-stroke"/>
<text x="413.984788" y="19.029982" font-size="9.029982px" font-family="Times New Roman" fill="#000000" xml:space="preserve">2</text>
<line x1="836.25" y1="1570" x2="836.25" y2="1540" stroke="#000000" stroke-width="0.5px" vector-effect="non-scaling-stroke"/>
<text x="693.109568" y="1559.029982" font-size="9.029982px" font-family="Times New Roman" fill="#000000" xml:space="preserve">3</text>
<line x1="836.25" y1="0" x2="836.25" y2="30" stroke="#000000" stroke-width="0.5px" vector-effect="non-scaling-stroke"/>
<text x="693.109568" y="19.029982" font-size="9.029982px" font-family="Times New Roman" fill="#000000" xml:space="preserve">3</text>
<line x1="1115" y1="1570" x2="1115" y2="1540" stroke="#000000" stroke-width="0.5px" vector-effect="non-scaling-stroke"/>
<text x="971.42306" y="1559.029982" font-size="9.029982px" font-family="Times New Roman" fill="#000000" xml:space="preserve">4</text>
<line x1="1115" y1="0" x2="1115" y2="30" stroke="#000000" stroke-width="0.5px" vector-effect="non-scaling-stroke"/>
<text x="971.42306" y="19.029982" font-size="9.029982px" font-family="Times New Roman" fill="#000000" xml:space="preserve">4</text>
<line x1="1393.75" y1="1570" x2="1393.75" y2="1540" stroke="#000000" stroke-width="0.5px" vector-effect="non-scaling-stroke"/>
<text x="1250.455247" y="1559.029982" font-size="9.029982px" font-family="Times New Roman" fill="#000000" xml:space="preserve">5</text>
<line x1="1393.75" y1="0" x2="1393.75" y2="30" stroke="#000000" stroke-width="0.5px" vector-effect="non-scaling-stroke"/>
<text x="1250.455247" y="19.029982" font-size="9.029982px" font-family="Times New Roman" fill="#000000" xml:space="preserve">5</text>
<line x1="1672.5" y1="1570" x2="1672.5" y2="1540" stroke="#000000" stroke-width="0.5px" vector-effect="non-scaling-stroke"/>
<text x="1528.958333" y="1559.029982" font-size="9.029982px" font-family="Times New Roman" fill="#000000" xml:space="preserve">6</text>
<line x1="1672.5" y1="0" x2="1672.5" y2="30" stroke="#000000" stroke-width="0.5px" vector-effect="non-scaling-stroke"/>
<text x="1528.958333" y="19.029982" font-size="9.029982px" font-family="Times New Roman" fill="#000000" xml:space="preserve">6</text>
<line x1="1951.25" y1="1570" x2="1951.25" y2="1540" stroke="#000000" stroke-width="0.5px" vector-effect="non-scaling-stroke"/>
<text x="1807.761243" y="1559.029982" font-size="9.029982px" font-family="Times New Roman" fill="#000000" xml:space="preserve">7</text>
<line x1="1951.25" y1="0" x2="1951.25" y2="30" stroke="#000000" stroke-width="0.5px" vector-effect="non-scaling-stroke"/>
<text x="1807.761243" y="19.029982" font-size="9.029982px" font-family="Times New Roman" fill="#000000" xml:space="preserve">7</text>
<line x1="2230" y1="1570" x2="2230" y2="1540" stroke="#000000" stroke-width="0.5px" vector-effect="non-scaling-stroke"/>
<text x="2086.630291" y="1559.029982" font-size="9.029982px" font-family="Times New Roman" fill="#000000" xml:space="preserve">8</text>
<line x1="2230" y1="0" x2="2230" y2="30" stroke="#000000" stroke-width="0.5px" vector-effect="non-scaling-stroke"/>
<text x="2086.630291" y="19.029982" font-size="9.029982px" font-family="Times New Roman" fill="#000000" xml:space="preserve">8</text>
<line x1="0" y1="1177.5" x2="30" y2="1177.5" stroke="#000000" stroke-width="0.5px" vector-effect="non-scaling-stroke"/>
<text x="11.911376" y="1377.779982" font-size="9.029982px" font-family="Times New Roman" fill="#000000" xml:space="preserve">D</text>
<line x1="2230" y1="1177.5" x2="2200" y2="1177.5" stroke="#000000" stroke-width="0.5px" vector-effect="non-scaling-stroke"/>
<text x="2211.911376" y="1377.779982" font-size="9.029982px" font-family="Times New Roman" fill="#000000" xml:space="preserve">D</text>
<line x1="0" y1="785" x2="30" y2="785" stroke="#000000" stroke-width="0.5px" vector-effect="non-scaling-stroke"/>
<text x="12.145062" y="985.279982" font-size="9.029982px" font-family="Times New Roman" fill="#000000" xml:space="preserve">C</text>
<line x1="2230" y1="785" x2="2200" y2="785" stroke="#000000" stroke-width="0.5px" vector-effect="non-scaling-stroke"/>
<text x="2212.145062" y="985.279982" font-size="9.029982px" font-family="Times New Roman" fill="#000000" xml:space="preserve">C</text>
<line x1="0" y1="392.5" x2="30" y2="392.5" stroke="#000000" stroke-width="0.5px" vector-effect="non-scaling-stroke"/>
<text x="12.23545" y="592.779982" font-size="9.029982px" font-family="Times New Roman" fill="#000000" xml:space="preserve">B</text>
<line x1="2230" y1="392.5" x2="2200" y2="392.5" stroke="#000000" stroke-width="0.5px" vector-effect="non-scaling-stroke"/>
<text x="2212.23545" y="592.779982" font-size="9.029982px" font-family="Times New Roman" fill="#000000" xml:space="preserve">B</text>
<line x1="0" y1="0" x2="30" y2="0" stroke="#000000" stroke-width="0.5px" vector-effect="non-scaling-stroke"/>
<text x="11.790123" y="200.279982" font-size="9.029982px" font-family="Times New Roman" fill="#000000" xml:space="preserve">A</text>
<line x1="2230" y1="0" x2="2200" y2="0" stroke="#000000" stroke-width="0.5px" vector-effect="non-scaling-stroke"/>
<text x="2211.790123" y="200.279982" font-size="9.029982px" font-family="Times New Roman" fill="#000000" xml:space="preserve">A</text>
</g>
<g id = "DocumentItemsGroup" >
<g id = "EDHOWUBN" >
<polygon points="955,575 950,570 955,565 1015,565 1020,570 1015,575" fill="#D9EAD3" fill-opacity="1"/>
<polygon points="955,575 950,570 955,565 1015,565 1020,570 1015,575" fill="none" stroke="#000000" stroke-width="1px"/>
<text x="966.962413" y="573" font-size="8.951049px" font-family="Arial" fill="#000000" xml:space="preserve">OSC_EN</text>
</g>
<g id = "GCMANISP" >
<polygon points="1475,525 1470,520 1475,515 1535,515 1540,520 1535,525" fill="#D9EAD3" fill-opacity="1"/>
<polygon points="1475,525 1470,520 1475,515 1535,515 1540,520 1535,525" fill="none" stroke="#000000" stroke-width="1px"/>
<text x="1491.534091" y="523" font-size="8.951049px" font-family="Arial" fill="#000000" xml:space="preserve">GPIO0</text>
</g>
<g id = "GEFWYSUT" >
<polygon points="615,475 610,470 615,465 675,465 680,470 675,475" fill="#D9EAD3" fill-opacity="1"/>
<polygon points="615,475 610,470 615,465 675,465 680,470 675,475" fill="none" stroke="#000000" stroke-width="1px"/>
<text x="622.690122" y="473" font-size="8.951049px" font-family="Arial" fill="#000000" xml:space="preserve">CLK_OUT1</text>
</g>
<g id = "KAYGDPGF" >
<polygon points="1475,545 1470,540 1475,535 1535,535 1540,540 1535,545" fill="#D9EAD3" fill-opacity="1"/>
<polygon points="1475,545 1470,540 1475,535 1535,535 1540,540 1535,545" fill="none" stroke="#000000" stroke-width="1px"/>
<text x="1491.555944" y="543" font-size="8.951049px" font-family="Arial" fill="#000000" xml:space="preserve">GPIO2</text>
</g>
<g id = "MDJBCRTQ" >
<polygon points="955,475 950,470 955,465 1015,465 1020,470 1015,475" fill="#D9EAD3" fill-opacity="1"/>
<polygon points="955,475 950,470 955,465 1015,465 1020,470 1015,475" fill="none" stroke="#000000" stroke-width="1px"/>
<text x="958.760927" y="473" font-size="8.951049px" font-family="Arial" fill="#000000" xml:space="preserve">WEIGHT_EN</text>
</g>
<g id = "MFLHVNIX" >
<polygon points="955,375 950,370 955,365 1015,365 1020,370 1015,375" fill="#D9EAD3" fill-opacity="1"/>
<polygon points="955,375 950,370 955,365 1015,365 1020,370 1015,375" fill="none" stroke="#000000" stroke-width="1px"/>
<text x="953.942308" y="373" font-size="8.951049px" font-family="Arial" fill="#000000" xml:space="preserve">SAMPLE_TRIG</text>
</g>
<g id = "PMHFLPGP" >
<polygon points="615,575 610,570 615,565 675,565 680,570 675,575" fill="#D9EAD3" fill-opacity="1"/>
<polygon points="615,575 610,570 615,565 675,565 680,570 675,575" fill="none" stroke="#000000" stroke-width="1px"/>
<text x="622.082605" y="573" font-size="8.951049px" font-family="Arial" fill="#000000" xml:space="preserve">CLK_OUT0</text>
</g>
<g id = "RGTWBSIT" >
<polygon points="615,275 610,270 615,265 675,265 680,270 675,275" fill="#D9EAD3" fill-opacity="1"/>
<polygon points="615,275 610,270 615,265 675,265 680,270 675,275" fill="none" stroke="#000000" stroke-width="1px"/>
<text x="622.071678" y="273" font-size="8.951049px" font-family="Arial" fill="#000000" xml:space="preserve">CLK_OUT3</text>
</g>
<g id = "TSTWYSFR" >
<polygon points="615,375 610,370 615,365 675,365 680,370 675,375" fill="#D9EAD3" fill-opacity="1"/>
<polygon points="615,375 610,370 615,365 675,365 680,370 675,375" fill="none" stroke="#000000" stroke-width="1px"/>
<text x="622.104458" y="373" font-size="8.951049px" font-family="Arial" fill="#000000" xml:space="preserve">CLK_OUT2</text>
</g>
<g id = "TVIIOWUZ" >
<polygon points="1475,535 1470,530 1475,525 1535,525 1540,530 1535,535" fill="#D9EAD3" fill-opacity="1"/>
<polygon points="1475,535 1470,530 1475,525 1535,525 1540,530 1535,535" fill="none" stroke="#000000" stroke-width="1px"/>
<text x="1492.141608" y="533" font-size="8.951049px" font-family="Arial" fill="#000000" xml:space="preserve">GPIO1</text>
</g>
<g id = "VGHSBMMW" >
<polygon points="1475,555 1470,550 1475,545 1535,545 1540,550 1535,555" fill="#D9EAD3" fill-opacity="1"/>
<polygon points="1475,555 1470,550 1475,545 1535,545 1540,550 1535,555" fill="none" stroke="#000000" stroke-width="1px"/>
<text x="1491.523164" y="553" font-size="8.951049px" font-family="Arial" fill="#000000" xml:space="preserve">GPIO3</text>
</g>
<g id = "AMOPQIEF" >
<line x1="550" y1="1300" x2="570" y2="1300" stroke="#800000" stroke-width="1px"/>
<line x1="553" y1="1303" x2="567" y2="1303" stroke="#800000" stroke-width="1px"/>
<line x1="556" y1="1306" x2="564" y2="1306" stroke="#800000" stroke-width="1px"/>
<line x1="559" y1="1309" x2="561" y2="1309" stroke="#800000" stroke-width="1px"/>
<line x1="560" y1="1290" x2="560" y2="1300" stroke="#800000" stroke-width="1px"/>
</g>
<g id = "FDBVEWBS" >
<line x1="950" y1="1300" x2="970" y2="1300" stroke="#800000" stroke-width="1px"/>
<line x1="953" y1="1303" x2="967" y2="1303" stroke="#800000" stroke-width="1px"/>
<line x1="956" y1="1306" x2="964" y2="1306" stroke="#800000" stroke-width="1px"/>
<line x1="959" y1="1309" x2="961" y2="1309" stroke="#800000" stroke-width="1px"/>
<line x1="960" y1="1290" x2="960" y2="1300" stroke="#800000" stroke-width="1px"/>
</g>
<g id = "MXTMPVOU" >
<line x1="750" y1="1300" x2="770" y2="1300" stroke="#800000" stroke-width="1px"/>
<line x1="753" y1="1303" x2="767" y2="1303" stroke="#800000" stroke-width="1px"/>
<line x1="756" y1="1306" x2="764" y2="1306" stroke="#800000" stroke-width="1px"/>
<line x1="759" y1="1309" x2="761" y2="1309" stroke="#800000" stroke-width="1px"/>
<line x1="760" y1="1290" x2="760" y2="1300" stroke="#800000" stroke-width="1px"/>
</g>
<g id = "ALVIMEKK" >
<line x1="1660" y1="530" x2="1540" y2="530" stroke="#000080" stroke-width="1px"/>
</g>
<g id = "BHLZRMFA" >
<line x1="760" y1="370" x2="680" y2="370" stroke="#000080" stroke-width="1px"/>
</g>
<g id = "DMNCYUSP" >
<line x1="1660" y1="540" x2="1540" y2="540" stroke="#000080" stroke-width="1px"/>
</g>
<g id = "FYIQKFUZ" >
<line x1="760" y1="570" x2="680" y2="570" stroke="#000080" stroke-width="1px"/>
</g>
<g id = "KQPAXHIE" >
<line x1="1090" y1="470" x2="1020" y2="470" stroke="#000080" stroke-width="1px"/>
</g>
<g id = "MYFBGAXF" >
<line x1="1090" y1="570" x2="1020" y2="570" stroke="#000080" stroke-width="1px"/>
</g>
<g id = "OQESJREF" >
<line x1="760" y1="1270" x2="760" y2="1290" stroke="#000080" stroke-width="1px"/>
</g>
<g id = "RKOQWWZQ" >
<line x1="1660" y1="550" x2="1540" y2="550" stroke="#000080" stroke-width="1px"/>
</g>
<g id = "SJNDTPGD" >
<line x1="760" y1="270" x2="680" y2="270" stroke="#000080" stroke-width="1px"/>
</g>
<g id = "USGIRWWC" >
<line x1="1260" y1="470" x2="1110" y2="470" stroke="#000080" stroke-width="1px"/>
</g>
<g id = "VCIRPPTV" >
<line x1="1260" y1="370" x2="1110" y2="370" stroke="#000080" stroke-width="1px"/>
</g>
<g id = "WOFDUCJL" >
<line x1="760" y1="470" x2="680" y2="470" stroke="#000080" stroke-width="1px"/>
</g>
<g id = "WYKUEOOA" >
<line x1="960" y1="1270" x2="960" y2="1290" stroke="#000080" stroke-width="1px"/>
</g>
<g id = "XFSUPVCI" >
<line x1="560" y1="1270" x2="560" y2="1290" stroke="#000080" stroke-width="1px"/>
</g>
<g id = "XKSILEFK" >
<line x1="1090" y1="370" x2="1020" y2="370" stroke="#000080" stroke-width="1px"/>
</g>
<g id = "ZCKTXEJT" >
<line x1="1260" y1="570" x2="1110" y2="570" stroke="#000080" stroke-width="1px"/>
</g>
<g id = "ZJRVBMJG" >
<line x1="1660" y1="520" x2="1540" y2="520" stroke="#000080" stroke-width="1px"/>
</g>
<g id = "0X2ZH9J9" >
<g id = "HW9Z3K5Q" >
<line x1="1300" y1="470" x2="1280" y2="470" stroke="#000000" stroke-width="1px"/>
</g>
<g id = "E9NBN0XJ" >
<line x1="1300" y1="470" x2="1295" y2="466.667" stroke="#000000" stroke-width="1px"/>
</g>
<g id = "OZW7OJ1G" >
<line x1="1300" y1="470" x2="1295" y2="473.333" stroke="#000000" stroke-width="1px"/>
</g>
<g id = "Q91RZM43" >
<rect x = "1280" y="460" width="30" height="20" fill="#FFFFB0" fill-opacity="0.49019607843137253"/>
<rect x = "1280" y="460" width="30" height="20" stroke="#000000" stroke-width="1px"/>
</g>
<g id = "CIKJFX5U" >
<line x1="1280" y1="470" x2="1260" y2="470" stroke="#000000" stroke-width="1px"/>
<text x="1268.5873" y="469" font-size="9.029982px" font-family="Times New Roman" fill="#000000" xml:space="preserve">1</text>
</g>
<g id = "0SBCCIWN" >
<text x="1260" y="453" font-size="8.951049px" font-family="Arial" fill="#000080" xml:space="preserve">SMA</text>
</g>
<g id = "AGOA27VL" >
<text x="1260" y="459" font-size="9.029982px" font-family="Times New Roman" fill="#000000" xml:space="preserve">J55</text>
</g>
</g>
<g id = "1IF31UFF" >
<g id = "QYHZUF7W" >
<line x1="1300" y1="370" x2="1280" y2="370" stroke="#000000" stroke-width="1px"/>
</g>
<g id = "IM4BAE20" >
<line x1="1300" y1="370" x2="1295" y2="366.667" stroke="#000000" stroke-width="1px"/>
</g>
<g id = "AL88ZFA7" >
<line x1="1300" y1="370" x2="1295" y2="373.333" stroke="#000000" stroke-width="1px"/>
</g>
<g id = "W98IL0CE" >
<rect x = "1280" y="360" width="30" height="20" fill="#FFFFB0" fill-opacity="0.49019607843137253"/>
<rect x = "1280" y="360" width="30" height="20" stroke="#000000" stroke-width="1px"/>
</g>
<g id = "5YMGM36C" >
<line x1="1280" y1="370" x2="1260" y2="370" stroke="#000000" stroke-width="1px"/>
<text x="1268.5873" y="369" font-size="9.029982px" font-family="Times New Roman" fill="#000000" xml:space="preserve">1</text>
</g>
<g id = "E6Q1N2DF" >
<text x="1260" y="353" font-size="8.951049px" font-family="Arial" fill="#000080" xml:space="preserve">SMA</text>
</g>
<g id = "P8A4JHIU" >
<text x="1260" y="359" font-size="9.029982px" font-family="Times New Roman" fill="#000000" xml:space="preserve">J56</text>
</g>
</g>
<g id = "4MUQXUCU" >
<g id = "NJ2THK36" >
<line x1="1107" y1="470" x2="1104.6" y2="474.5" stroke="#000000" stroke-width="1px"/>
<line x1="1104.6" y1="474.5" x2="1102.3" y2="465.5" stroke="#000000" stroke-width="1px"/>
<line x1="1102.3" y1="465.5" x2="1100" y2="474.5" stroke="#000000" stroke-width="1px"/>
<line x1="1100" y1="474.5" x2="1097.7" y2="465.5" stroke="#000000" stroke-width="1px"/>
<line x1="1097.7" y1="465.5" x2="1095.4" y2="474.5" stroke="#000000" stroke-width="1px"/>
<line x1="1095.4" y1="474.5" x2="1093" y2="470" stroke="#000000" stroke-width="1px"/>
</g>
<g id = "MTDNLPIU" >
<line x1="1110" y1="470" x2="1107" y2="470" stroke="#000000" stroke-width="1px"/>
</g>
<g id = "DYUQVNVH" >
<line x1="1090" y1="470" x2="1093" y2="470" stroke="#000000" stroke-width="1px"/>
</g>
<g id = "3VME4M4J" >
<line x1="1107" y1="470" x2="1110" y2="470" stroke="#000000" stroke-width="1px"/>
<text x="1115" y="469" font-size="4.413793px" font-family="Courier New" fill="#000000" xml:space="preserve">1</text>
</g>
<g id = "BR3JNPZU" >
<line x1="1093" y1="470" x2="1090" y2="470" stroke="#000000" stroke-width="1px"/>
<text x="1082.8815" y="469" font-size="4.413793px" font-family="Courier New" fill="#000000" xml:space="preserve">2</text>
</g>
<g id = "HOTRI7BA" >
<text x="1115" y="468" font-size="8.951049px" font-family="Arial" fill="#000000" xml:space="preserve">0</text>
</g>
<g id = "RZW46V79" >
<text x="1100" y="459" font-size="9.029982px" font-family="Times New Roman" fill="#000000" xml:space="preserve">R51</text>
</g>
</g>
<g id = "8171BJMK" >
<g id = "4CPQOTYV" >
<line x1="600" y1="1270" x2="580" y2="1270" stroke="#000000" stroke-width="1px"/>
</g>
<g id = "H6PSP5J6" >
<line x1="600" y1="1270" x2="595" y2="1266.667" stroke="#000000" stroke-width="1px"/>
</g>
<g id = "L4ABE7UB" >
<line x1="600" y1="1270" x2="595" y2="1273.333" stroke="#000000" stroke-width="1px"/>
</g>
<g id = "GDOYRP2X" >
<rect x = "580" y="1260" width="30" height="20" fill="#FFFFB0" fill-opacity="0.49019607843137253"/>
<rect x = "580" y="1260" width="30" height="20" stroke="#000000" stroke-width="1px"/>
</g>
<g id = "UE1KBEON" >
<line x1="580" y1="1270" x2="560" y2="1270" stroke="#000000" stroke-width="1px"/>
<text x="568.5873" y="1269" font-size="9.029982px" font-family="Times New Roman" fill="#000000" xml:space="preserve">1</text>
</g>
<g id = "QUFBAD88" >
<text x="560" y="1253" font-size="8.951049px" font-family="Arial" fill="#000080" xml:space="preserve">GND-CLIP</text>
</g>
<g id = "OGZKVPI9" >
<text x="560" y="1259" font-size="9.029982px" font-family="Times New Roman" fill="#000000" xml:space="preserve">TP50</text>
</g>
</g>
<g id = "BQM050HR" >
<g id = "1N2XDX53" >
<line x1="800" y1="370" x2="780" y2="370" stroke="#000000" stroke-width="1px"/>
</g>
<g id = "0ZY9EE3X" >
<line x1="800" y1="370" x2="795" y2="366.667" stroke="#000000" stroke-width="1px"/>
</g>
<g id = "AVZAENWW" >
<line x1="800" y1="370" x2="795" y2="373.333" stroke="#000000" stroke-width="1px"/>
</g>
<g id = "J3BIBYDN" >
<rect x = "780" y="360" width="30" height="20" fill="#FFFFB0" fill-opacity="0.49019607843137253"/>
<rect x = "780" y="360" width="30" height="20" stroke="#000000" stroke-width="1px"/>
</g>
<g id = "0VDQ82H7" >
<line x1="780" y1="370" x2="760" y2="370" stroke="#000000" stroke-width="1px"/>
<text x="768.5873" y="369" font-size="9.029982px" font-family="Times New Roman" fill="#000000" xml:space="preserve">1</text>
</g>
<g id = "EZ2WBAU8" >
<text x="760" y="353" font-size="8.951049px" font-family="Arial" fill="#000080" xml:space="preserve">SMA</text>
</g>
<g id = "P0KQ943J" >
<text x="760" y="359" font-size="9.029982px" font-family="Times New Roman" fill="#000000" xml:space="preserve">J52</text>
</g>
</g>
<g id = "BYTWM7PD" >
<g id = "TAOL32M7" >
<line x1="800" y1="570" x2="780" y2="570" stroke="#000000" stroke-width="1px"/>
</g>
<g id = "KEHMJHK9" >
<line x1="800" y1="570" x2="795" y2="566.667" stroke="#000000" stroke-width="1px"/>
</g>
<g id = "XCOLSLP1" >
<line x1="800" y1="570" x2="795" y2="573.333" stroke="#000000" stroke-width="1px"/>
</g>
<g id = "AUX9MMA4" >
<rect x = "780" y="560" width="30" height="20" fill="#FFFFB0" fill-opacity="0.49019607843137253"/>
<rect x = "780" y="560" width="30" height="20" stroke="#000000" stroke-width="1px"/>
</g>
<g id = "54G1OCEN" >
<line x1="780" y1="570" x2="760" y2="570" stroke="#000000" stroke-width="1px"/>
<text x="768.5873" y="569" font-size="9.029982px" font-family="Times New Roman" fill="#000000" xml:space="preserve">1</text>
</g>
<g id = "8GROFOU5" >
<text x="760" y="553" font-size="8.951049px" font-family="Arial" fill="#000080" xml:space="preserve">SMA</text>
</g>
<g id = "3HKYCXAY" >
<text x="760" y="559" font-size="9.029982px" font-family="Times New Roman" fill="#000000" xml:space="preserve">J50</text>
</g>
</g>
<g id = "D3XTFCFY" >
<g id = "NC8OFFEP" >
<line x1="800" y1="270" x2="780" y2="270" stroke="#000000" stroke-width="1px"/>
</g>
<g id = "V3FW4WNG" >
<line x1="800" y1="270" x2="795" y2="266.667" stroke="#000000" stroke-width="1px"/>
</g>
<g id = "7WJ2690K" >
<line x1="800" y1="270" x2="795" y2="273.333" stroke="#000000" stroke-width="1px"/>
</g>
<g id = "YC1H8JUL" >
<rect x = "780" y="260" width="30" height="20" fill="#FFFFB0" fill-opacity="0.49019607843137253"/>
<rect x = "780" y="260" width="30" height="20" stroke="#000000" stroke-width="1px"/>
</g>
<g id = "L4A81H39" >
<line x1="780" y1="270" x2="760" y2="270" stroke="#000000" stroke-width="1px"/>
<text x="768.5873" y="269" font-size="9.029982px" font-family="Times New Roman" fill="#000000" xml:space="preserve">1</text>
</g>
<g id = "AO1C6J4G" >
<text x="760" y="253" font-size="8.951049px" font-family="Arial" fill="#000080" xml:space="preserve">SMA</text>
</g>
<g id = "XY441E2I" >
<text x="760" y="259" font-size="9.029982px" font-family="Times New Roman" fill="#000000" xml:space="preserve">J53</text>
</g>
</g>
<g id = "FLU0M4AR" >
<g id = "EAWXMZH9" >
<line x1="800" y1="470" x2="780" y2="470" stroke="#000000" stroke-width="1px"/>
</g>
<g id = "3XPL9MK8" >
<line x1="800" y1="470" x2="795" y2="466.667" stroke="#000000" stroke-width="1px"/>
</g>
<g id = "FPNL7ASW" >
<line x1="800" y1="470" x2="795" y2="473.333" stroke="#000000" stroke-width="1px"/>
</g>
<g id = "0ZS9RK37" >
<rect x = "780" y="460" width="30" height="20" fill="#FFFFB0" fill-opacity="0.49019607843137253"/>
<rect x = "780" y="460" width="30" height="20" stroke="#000000" stroke-width="1px"/>
</g>
<g id = "JYPO3IDW" >
<line x1="780" y1="470" x2="760" y2="470" stroke="#000000" stroke-width="1px"/>
<text x="768.5873" y="469" font-size="9.029982px" font-family="Times New Roman" fill="#000000" xml:space="preserve">1</text>
</g>
<g id = "NS3KO2HW" >
<text x="760" y="453" font-size="8.951049px" font-family="Arial" fill="#000080" xml:space="preserve">SMA</text>
</g>
<g id = "3UZERMQC" >
<text x="760" y="459" font-size="9.029982px" font-family="Times New Roman" fill="#000000" xml:space="preserve">J51</text>
</g>
</g>
<g id = "HFVVZA31" >
<g id = "9307S6JS" >
<line x1="800" y1="1270" x2="780" y2="1270" stroke="#000000" stroke-width="1px"/>
</g>
<g id = "6EPF072F" >
<line x1="800" y1="1270" x2="795" y2="1266.667" stroke="#000000" stroke-width="1px"/>
</g>
<g id = "Y9H700JW" >
<line x1="800" y1="1270" x2="795" y2="1273.333" stroke="#000000" stroke-width="1px"/>
</g>
<g id = "CG1VHNA1" >
<rect x = "780" y="1260" width="30" height="20" fill="#FFFFB0" fill-opacity="0.49019607843137253"/>
<rect x = "780" y="1260" width="30" height="20" stroke="#000000" stroke-width="1px"/>
</g>
<g id = "8RU4G284" >
<line x1="780" y1="1270" x2="760" y2="1270" stroke="#000000" stroke-width="1px"/>
<text x="768.5873" y="1269" font-size="9.029982px" font-family="Times New Roman" fill="#000000" xml:space="preserve">1</text>
</g>
<g id = "SY0TTEAT" >
<text x="760" y="1253" font-size="8.951049px" font-family="Arial" fill="#000080" xml:space="preserve">GND-CLIP</text>
</g>
<g id = "1AHHD81V" >
<text x="760" y="1259" font-size="9.029982px" font-family="Times New Roman" fill="#000000" xml:space="preserve">TP51</text>
</g>
</g>
<g id = "KFZRLIL0" >
<g id = "O0GAXDFC" >
<line x1="1700" y1="520" x2="1680" y2="520" stroke="#000000" stroke-width="1px"/>
</g>
<g id = "Y37CI6N8" >
<line x1="1700" y1="530" x2="1680" y2="530" stroke="#000000" stroke-width="1px"/>
</g>
<g id = "XFZWOLLR" >
<line x1="1700" y1="540" x2="1680" y2="540" stroke="#000000" stroke-width="1px"/>
</g>
<g id = "2O1HGH3J" >
<line x1="1700" y1="550" x2="1680" y2="550" stroke="#000000" stroke-width="1px"/>
</g>
<g id = "SAJNMH6Z" >
<line x1="1700" y1="520" x2="1695" y2="516.667" stroke="#000000" stroke-width="1px"/>
</g>
<g id = "0BDWRW5X" >
<line x1="1700" y1="530" x2="1695" y2="526.667" stroke="#000000" stroke-width="1px"/>
</g>
<g id = "3RLCVNW0" >
<line x1="1700" y1="540" x2="1695" y2="536.667" stroke="#000000" stroke-width="1px"/>
</g>
<g id = "4CP9JRIW" >
<line x1="1700" y1="550" x2="1695" y2="546.667" stroke="#000000" stroke-width="1px"/>
</g>
<g id = "TL6XEUNM" >
<line x1="1700" y1="520" x2="1695" y2="523.333" stroke="#000000" stroke-width="1px"/>
</g>
<g id = "GP4JLRLH" >
<line x1="1700" y1="530" x2="1695" y2="533.333" stroke="#000000" stroke-width="1px"/>
</g>
<g id = "ZE8LVWY4" >
<line x1="1700" y1="540" x2="1695" y2="543.333" stroke="#000000" stroke-width="1px"/>
</g>
<g id = "7N37Y292" >
<line x1="1700" y1="550" x2="1695" y2="553.333" stroke="#000000" stroke-width="1px"/>
</g>
<g id = "5EACF1MK" >
<rect x = "1680" y="510" width="30" height="50" fill="#FFFFB0" fill-opacity="0.49019607843137253"/>
<rect x = "1680" y="510" width="30" height="50" stroke="#000000" stroke-width="1px"/>
</g>
<g id = "63ROHHBO" >
<line x1="1680" y1="520" x2="1660" y2="520" stroke="#000000" stroke-width="1px"/>
<text x="1668.5873" y="519" font-size="9.029982px" font-family="Times New Roman" fill="#000000" xml:space="preserve">1</text>
</g>
<g id = "4V2RQXJG" >
<line x1="1680" y1="530" x2="1660" y2="530" stroke="#000000" stroke-width="1px"/>
<text x="1667.8598" y="529" font-size="9.029982px" font-family="Times New Roman" fill="#000000" xml:space="preserve">2</text>
</g>
<g id = "ZD3TRU1D" >
<line x1="1680" y1="540" x2="1660" y2="540" stroke="#000000" stroke-width="1px"/>
<text x="1668.2346" y="539" font-size="9.029982px" font-family="Times New Roman" fill="#000000" xml:space="preserve">3</text>
</g>
<g id = "NZF842XG" >
<line x1="1680" y1="550" x2="1660" y2="550" stroke="#000000" stroke-width="1px"/>
<text x="1667.7981" y="549" font-size="9.029982px" font-family="Times New Roman" fill="#000000" xml:space="preserve">4</text>
</g>
<g id = "5ZQO37X2" >
<text x="1660" y="503" font-size="8.951049px" font-family="Arial" fill="#000080" xml:space="preserve">1x4 100mil</text>
</g>
<g id = "RAXTX538" >
<text x="1660" y="509" font-size="9.029982px" font-family="Times New Roman" fill="#000000" xml:space="preserve">J57</text>
</g>
</g>
<g id = "N5TIPA2Z" >
<g id = "6S39CMPX" >
<line x1="1107" y1="370" x2="1104.6" y2="374.5" stroke="#000000" stroke-width="1px"/>
<line x1="1104.6" y1="374.5" x2="1102.3" y2="365.5" stroke="#000000" stroke-width="1px"/>
<line x1="1102.3" y1="365.5" x2="1100" y2="374.5" stroke="#000000" stroke-width="1px"/>
<line x1="1100" y1="374.5" x2="1097.7" y2="365.5" stroke="#000000" stroke-width="1px"/>
<line x1="1097.7" y1="365.5" x2="1095.4" y2="374.5" stroke="#000000" stroke-width="1px"/>
<line x1="1095.4" y1="374.5" x2="1093" y2="370" stroke="#000000" stroke-width="1px"/>
</g>
<g id = "ZMVCDHG5" >
<line x1="1110" y1="370" x2="1107" y2="370" stroke="#000000" stroke-width="1px"/>
</g>
<g id = "IV8SGR22" >
<line x1="1090" y1="370" x2="1093" y2="370" stroke="#000000" stroke-width="1px"/>
</g>
<g id = "FNCTRSB0" >
<line x1="1107" y1="370" x2="1110" y2="370" stroke="#000000" stroke-width="1px"/>
<text x="1115" y="369" font-size="4.413793px" font-family="Courier New" fill="#000000" xml:space="preserve">1</text>
</g>
<g id = "RFDH4TQA" >
<line x1="1093" y1="370" x2="1090" y2="370" stroke="#000000" stroke-width="1px"/>
<text x="1082.8815" y="369" font-size="4.413793px" font-family="Courier New" fill="#000000" xml:space="preserve">2</text>
</g>
<g id = "C847CNZ7" >
<text x="1115" y="368" font-size="8.951049px" font-family="Arial" fill="#000000" xml:space="preserve">0</text>
</g>
<g id = "O82497CR" >
<text x="1100" y="359" font-size="9.029982px" font-family="Times New Roman" fill="#000000" xml:space="preserve">R52</text>
</g>
</g>
<g id = "T5SW8Y5A" >
<g id = "5RH2XUSC" >
<line x1="1107" y1="570" x2="1104.6" y2="574.5" stroke="#000000" stroke-width="1px"/>
<line x1="1104.6" y1="574.5" x2="1102.3" y2="565.5" stroke="#000000" stroke-width="1px"/>
<line x1="1102.3" y1="565.5" x2="1100" y2="574.5" stroke="#000000" stroke-width="1px"/>
<line x1="1100" y1="574.5" x2="1097.7" y2="565.5" stroke="#000000" stroke-width="1px"/>
<line x1="1097.7" y1="565.5" x2="1095.4" y2="574.5" stroke="#000000" stroke-width="1px"/>
<line x1="1095.4" y1="574.5" x2="1093" y2="570" stroke="#000000" stroke-width="1px"/>
</g>
<g id = "DIHRYTTB" >
<line x1="1110" y1="570" x2="1107" y2="570" stroke="#000000" stroke-width="1px"/>
</g>
<g id = "TOA0XVF9" >
<line x1="1090" y1="570" x2="1093" y2="570" stroke="#000000" stroke-width="1px"/>
</g>
<g id = "DS07XMUO" >
<line x1="1107" y1="570" x2="1110" y2="570" stroke="#000000" stroke-width="1px"/>
<text x="1115" y="569" font-size="4.413793px" font-family="Courier New" fill="#000000" xml:space="preserve">1</text>
</g>
<g id = "5DTXLNCW" >
<line x1="1093" y1="570" x2="1090" y2="570" stroke="#000000" stroke-width="1px"/>
<text x="1082.8815" y="569" font-size="4.413793px" font-family="Courier New" fill="#000000" xml:space="preserve">2</text>
</g>
<g id = "1W234WQY" >
<text x="1115" y="568" font-size="8.951049px" font-family="Arial" fill="#000000" xml:space="preserve">0</text>
</g>
<g id = "YGAPSNSS" >
<text x="1100" y="559" font-size="9.029982px" font-family="Times New Roman" fill="#000000" xml:space="preserve">R50</text>
</g>
</g>
<g id = "WBEUCCN3" >
<g id = "0T8K2M69" >
<line x1="1300" y1="570" x2="1280" y2="570" stroke="#000000" stroke-width="1px"/>
</g>
<g id = "QSC745FH" >
<line x1="1300" y1="570" x2="1295" y2="566.667" stroke="#000000" stroke-width="1px"/>
</g>
<g id = "EGGZ7ZKB" >
<line x1="1300" y1="570" x2="1295" y2="573.333" stroke="#000000" stroke-width="1px"/>
</g>
<g id = "SR29V48Z" >
<rect x = "1280" y="560" width="30" height="20" fill="#FFFFB0" fill-opacity="0.49019607843137253"/>
<rect x = "1280" y="560" width="30" height="20" stroke="#000000" stroke-width="1px"/>
</g>
<g id = "U7N2YCCF" >
<line x1="1280" y1="570" x2="1260" y2="570" stroke="#000000" stroke-width="1px"/>
<text x="1268.5873" y="569" font-size="9.029982px" font-family="Times New Roman" fill="#000000" xml:space="preserve">1</text>
</g>
<g id = "YCJQ95DA" >
<text x="1260" y="553" font-size="8.951049px" font-family="Arial" fill="#000080" xml:space="preserve">SMA</text>
</g>
<g id = "W00RWRJV" >
<text x="1260" y="559" font-size="9.029982px" font-family="Times New Roman" fill="#000000" xml:space="preserve">J54</text>
</g>
</g>
<g id = "ZCT34Y7G" >
<g id = "22Z60R05" >
<line x1="1000" y1="1270" x2="980" y2="1270" stroke="#000000" stroke-width="1px"/>
</g>
<g id = "A4O9L7MR" >
<line x1="1000" y1="1270" x2="995" y2="1266.667" stroke="#000000" stroke-width="1px"/>
</g>
<g id = "8B856ER3" >
<line x1="1000" y1="1270" x2="995" y2="1273.333" stroke="#000000" stroke-width="1px"/>
</g>
<g id = "6QBP9MMP" >
<rect x = "980" y="1260" width="30" height="20" fill="#FFFFB0" fill-opacity="0.49019607843137253"/>
<rect x = "980" y="1260" width="30" height="20" stroke="#000000" stroke-width="1px"/>
</g>
<g id = "BDRA59D6" >
<line x1="980" y1="1270" x2="960" y2="1270" stroke="#000000" stroke-width="1px"/>
<text x="968.5873" y="1269" font-size="9.029982px" font-family="Times New Roman" fill="#000000" xml:space="preserve">1</text>
</g>
<g id = "M5ZZGQ5B" >
<text x="960" y="1253" font-size="8.951049px" font-family="Arial" fill="#000080" xml:space="preserve">GND-CLIP</text>
</g>
<g id = "1553F97U" >
<text x="960" y="1259" font-size="9.029982px" font-family="Times New Roman" fill="#000000" xml:space="preserve">TP52</text>
</g>
</g>
</g>
</g>
</g>
</g>
</svg>